<svg width="24" height="24" viewBox="0 0 24 24" fill="none" xmlns="http://www.w3.org/2000/svg">
<path d="M17.9741 9.89474V8.06568C17.9741 7.61937 17.7959 7.19074 17.4791 6.87495L15.0899 4.49347C14.7731 4.17768 14.343 4 13.8953 4H6.68967C5.75613 4 5 4.75368 5 5.68421L5 18.3158C5 19.2463 5.75613 20 6.68967 20H9.25425M17.9741 8.21053H14.5948C14.1285 8.21053 13.75 7.83326 13.75 7.36842V4M15.1983 14.6989V17.7213M16.7147 16.2105H13.6826M15.1983 20C13.0988 20 11.3965 18.3032 11.3965 16.2105C11.3965 14.1179 13.0988 12.4211 15.1983 12.4211C17.2985 12.4211 19 14.1179 19 16.2105C19 18.3032 17.2985 20 15.1983 20Z" stroke="#95A3BA" stroke-width="1.5" stroke-linecap="round" stroke-linejoin="round"/>
</svg>
