<svg width="83" height="26" viewBox="0 0 83 26" fill="none" xmlns="http://www.w3.org/2000/svg">
<path d="M0.562204 15.2879C0.426984 15.1043 0.359375 14.8748 0.359375 14.5994C0.359375 14.2016 0.554692 13.865 0.945326 13.5897C1.15567 13.452 1.37352 13.3831 1.59889 13.3831C1.9144 13.3831 2.21489 13.5285 2.50035 13.8191C2.95108 14.2934 3.41684 14.6453 3.89762 14.8748C4.39342 15.1043 4.98688 15.219 5.678 15.219C6.84991 15.1731 7.43586 14.7218 7.43586 13.865C7.43586 13.4214 7.23303 13.0848 6.82737 12.8553C6.43674 12.6258 5.82074 12.3963 4.97937 12.1668C4.10796 11.922 3.3943 11.6773 2.8384 11.4325C2.29752 11.1877 1.82425 10.8205 1.41859 10.3309C1.02796 9.82606 0.832643 9.1529 0.832643 8.31145C0.832643 7.57709 1.03547 6.94217 1.44113 6.4067C1.86181 5.85593 2.40269 5.43521 3.06376 5.14452C3.73986 4.83854 4.45352 4.68555 5.20474 4.68555C5.97098 4.68555 6.73722 4.83089 7.50347 5.12158C8.26971 5.41226 8.87068 5.84063 9.30639 6.4067C9.50171 6.65149 9.59937 6.92687 9.59937 7.23286C9.59937 7.58474 9.45663 7.87542 9.17117 8.10491C8.96083 8.2732 8.72044 8.35734 8.45 8.35734C8.11946 8.35734 7.84903 8.25025 7.63868 8.03606C7.36825 7.69948 7.01517 7.43175 6.57947 7.23286C6.15878 7.03397 5.678 6.93452 5.13713 6.93452C3.99527 6.93452 3.42435 7.35525 3.42435 8.1967C3.42435 8.53329 3.52952 8.80867 3.73986 9.02286C3.9502 9.22175 4.21313 9.38239 4.52864 9.50478C4.85918 9.61187 5.31742 9.74957 5.90337 9.91786C6.71469 10.1473 7.39078 10.3845 7.93166 10.6293C8.47254 10.8741 8.93078 11.2489 9.30639 11.7538C9.682 12.2586 9.8698 12.9241 9.8698 13.7503C9.8698 14.5 9.65195 15.1578 9.21624 15.7239C8.78054 16.2747 8.21712 16.6954 7.526 16.9861C6.84991 17.2767 6.15127 17.4221 5.4301 17.4221C4.43849 17.4221 3.51449 17.2538 2.6581 16.9172C1.80172 16.5806 1.10308 16.0375 0.562204 15.2879Z" fill="#00339A"/>
<path d="M22.5179 4.68555C22.9086 4.68555 23.2316 4.81559 23.487 5.07568C23.7424 5.33576 23.8701 5.67234 23.8701 6.08542V15.7927C23.8701 16.1905 23.7424 16.5271 23.487 16.8025C23.2316 17.0626 22.9086 17.1926 22.5179 17.1926C22.1273 17.1926 21.8043 17.0626 21.5489 16.8025C21.3085 16.5424 21.1808 16.2135 21.1657 15.8157C20.7901 16.2594 20.2793 16.6418 19.6332 16.9631C19.0022 17.2691 18.3336 17.4221 17.6275 17.4221C16.5908 17.4221 15.6518 17.1544 14.8104 16.6189C13.9691 16.0681 13.3005 15.3108 12.8047 14.347C12.3239 13.3831 12.0835 12.2892 12.0835 11.0653C12.0835 9.84136 12.3239 8.74747 12.8047 7.78363C13.2854 6.80448 13.939 6.04717 14.7653 5.5117C15.6067 4.96093 16.5307 4.68555 17.5373 4.68555C18.2585 4.68555 18.9346 4.82324 19.5656 5.09863C20.1967 5.35871 20.73 5.69529 21.1657 6.10837V6.08542C21.1657 5.68764 21.2934 5.35871 21.5489 5.09863C21.8043 4.82324 22.1273 4.68555 22.5179 4.68555ZM17.9655 14.8977C18.9421 14.8977 19.7384 14.5382 20.3544 13.8191C20.9704 13.0848 21.2784 12.1668 21.2784 11.0653C21.2784 9.96375 20.9704 9.04581 20.3544 8.31145C19.7384 7.57709 18.9421 7.20991 17.9655 7.20991C17.004 7.20991 16.2152 7.57709 15.5992 8.31145C14.9832 9.04581 14.6752 9.96375 14.6752 11.0653C14.6752 12.1668 14.9757 13.0848 15.5767 13.8191C16.1927 14.5382 16.989 14.8977 17.9655 14.8977Z" fill="#00339A"/>
<path d="M30.1815 15.7926C30.1815 16.1904 30.0463 16.527 29.7759 16.8024C29.5204 17.0625 29.1974 17.1925 28.8068 17.1925C28.4312 17.1925 28.1157 17.0625 27.8602 16.8024C27.6048 16.527 27.4771 16.1904 27.4771 15.7926V1.61032C27.4771 1.21254 27.6048 0.883611 27.8602 0.623525C28.1307 0.348141 28.4612 0.210449 28.8519 0.210449C29.2275 0.210449 29.543 0.348141 29.7984 0.623525C30.0538 0.883611 30.1815 1.21254 30.1815 1.61032V15.7926Z" fill="#00339A"/>
<path d="M44.3746 10.767C44.3595 11.1341 44.2168 11.4325 43.9464 11.662C43.6759 11.8914 43.3604 12.0062 42.9998 12.0062H35.5628C35.7431 12.9088 36.1562 13.6203 36.8023 14.1404C37.4483 14.6453 38.177 14.8977 38.9883 14.8977C39.6043 14.8977 40.0851 14.8442 40.4307 14.7371C40.7762 14.6147 41.0467 14.4923 41.242 14.3699C41.4523 14.2322 41.5951 14.1404 41.6702 14.0945C41.9406 13.9568 42.196 13.888 42.4364 13.888C42.7519 13.888 43.0224 14.0027 43.2477 14.2322C43.4731 14.4617 43.5858 14.7294 43.5858 15.0354C43.5858 15.4485 43.3754 15.8233 42.9548 16.1599C42.5341 16.5118 41.9707 16.8101 41.2645 17.0549C40.5584 17.2997 39.8447 17.4221 39.1235 17.4221C37.8615 17.4221 36.7572 17.1544 35.8107 16.6189C34.8792 16.0834 34.158 15.3491 33.6472 14.4158C33.1363 13.4673 32.8809 12.404 32.8809 11.2259C32.8809 9.91021 33.1514 8.75512 33.6922 7.76068C34.2331 6.76623 34.9468 6.00893 35.8332 5.48875C36.7196 4.95328 37.6662 4.68555 38.6728 4.68555C39.6644 4.68555 40.5959 4.96093 41.4674 5.5117C42.3538 6.06247 43.0599 6.80448 43.5858 7.73773C44.1116 8.67098 44.3746 9.68072 44.3746 10.767ZM38.6728 7.20991C36.93 7.20991 35.9008 8.04371 35.5853 9.71132H41.4899V9.55068C41.4298 8.90811 41.1218 8.35734 40.5659 7.89837C40.01 7.4394 39.379 7.20991 38.6728 7.20991Z" fill="#00339A"/>
<path d="M53.3232 4.68545C54.3599 4.68545 55.2989 4.96083 56.1403 5.5116C56.9817 6.04707 57.6427 6.79673 58.1235 7.76058C58.6193 8.72442 58.8672 9.81831 58.8672 11.0422C58.8672 12.2662 58.6268 13.3677 58.1461 14.3469C57.6653 15.3107 57.0042 16.068 56.1629 16.6188C55.3365 17.1543 54.42 17.422 53.4134 17.422C52.6922 17.422 52.0086 17.2766 51.3626 16.986C50.7315 16.68 50.2057 16.3128 49.785 15.8844V16.0221C49.785 16.4199 49.6573 16.7565 49.4019 17.0319C49.1465 17.2919 48.8234 17.422 48.4328 17.422C48.0422 17.422 47.7192 17.2919 47.4637 17.0319C47.2083 16.7718 47.0806 16.4352 47.0806 16.0221V1.61032C47.0806 1.21254 47.2083 0.883611 47.4637 0.623525C47.7192 0.348141 48.0422 0.210449 48.4328 0.210449C48.8234 0.210449 49.1465 0.348141 49.4019 0.623525C49.6573 0.883611 49.785 1.21254 49.785 1.61032V6.4066C50.1456 5.94763 50.6489 5.54985 51.2949 5.21327C51.941 4.86139 52.6171 4.68545 53.3232 4.68545ZM52.9852 14.8976C53.9468 14.8976 54.7355 14.5304 55.3515 13.7961C55.9675 13.0617 56.2755 12.1438 56.2755 11.0422C56.2755 9.94071 55.9675 9.03041 55.3515 8.31135C54.7506 7.57699 53.9618 7.20981 52.9852 7.20981C52.0086 7.20981 51.2123 7.57699 50.5963 8.31135C49.9803 9.03041 49.6723 9.94071 49.6723 11.0422C49.6723 12.1438 49.9803 13.0617 50.5963 13.7961C51.2123 14.5304 52.0086 14.8976 52.9852 14.8976Z" fill="#00339A"/>
<path d="M73.1564 11.0653C73.1564 12.2892 72.8859 13.3908 72.3451 14.3699C71.8042 15.3338 71.0605 16.0834 70.1139 16.6189C69.1824 17.1544 68.1533 17.4221 67.0264 17.4221C65.8846 17.4221 64.8479 17.1544 63.9164 16.6189C62.9849 16.0834 62.2487 15.3338 61.7078 14.3699C61.1669 13.3908 60.8965 12.2892 60.8965 11.0653C60.8965 9.84136 61.1669 8.74747 61.7078 7.78363C62.2487 6.80448 62.9849 6.04717 63.9164 5.5117C64.8479 4.96093 65.8846 4.68555 67.0264 4.68555C68.1533 4.68555 69.1824 4.96093 70.1139 5.5117C71.0605 6.04717 71.8042 6.80448 72.3451 7.78363C72.8859 8.74747 73.1564 9.84136 73.1564 11.0653ZM70.452 11.0653C70.452 10.3156 70.2942 9.65012 69.9787 9.06875C69.6782 8.47209 69.2651 8.01311 68.7392 7.69183C68.2284 7.37055 67.6574 7.20991 67.0264 7.20991C66.3954 7.20991 65.817 7.37055 65.2911 7.69183C64.7803 8.01311 64.3671 8.47209 64.0516 9.06875C63.7511 9.65012 63.6009 10.3156 63.6009 11.0653C63.6009 11.815 63.7511 12.4805 64.0516 13.0618C64.3671 13.6432 64.7803 14.0945 65.2911 14.4158C65.817 14.7371 66.3954 14.8977 67.0264 14.8977C67.6574 14.8977 68.2284 14.7371 68.7392 14.4158C69.2651 14.0945 69.6782 13.6432 69.9787 13.0618C70.2942 12.4805 70.452 11.815 70.452 11.0653Z" fill="#00339A"/>
<path d="M81.681 14.5993C81.8913 14.5993 82.0791 14.7064 82.2444 14.9206C82.4247 15.1195 82.5149 15.3872 82.5149 15.7238C82.5149 16.1369 82.2895 16.4887 81.8388 16.7794C81.4031 17.0548 80.9072 17.1925 80.3513 17.1925C79.4198 17.1925 78.6311 16.9936 77.985 16.5958C77.354 16.1828 77.0385 15.3184 77.0385 14.0026V7.66883H76.0018C75.6412 7.66883 75.3407 7.54644 75.1003 7.30165C74.8599 7.05687 74.7397 6.75088 74.7397 6.3837C74.7397 6.03182 74.8599 5.74114 75.1003 5.51165C75.3407 5.26687 75.6412 5.14447 76.0018 5.14447H77.0385V3.67575C77.0385 3.27798 77.1662 2.94905 77.4216 2.68896C77.692 2.41358 78.0226 2.27588 78.4132 2.27588C78.7888 2.27588 79.1043 2.41358 79.3597 2.68896C79.6152 2.94905 79.7429 3.27798 79.7429 3.67575V5.14447H81.343C81.7035 5.14447 82.004 5.26687 82.2444 5.51165C82.4848 5.75644 82.605 6.06242 82.605 6.4296C82.605 6.78148 82.4848 7.07982 82.2444 7.3246C82.004 7.55409 81.7035 7.66883 81.343 7.66883H79.7429V13.8879C79.7429 14.2092 79.8255 14.4463 79.9908 14.5993C80.156 14.737 80.3814 14.8058 80.6669 14.8058C80.7871 14.8058 80.9523 14.7752 81.1627 14.714C81.343 14.6375 81.5157 14.5993 81.681 14.5993Z" fill="#00339A"/>
<path d="M73.2091 20.835C74.453 20.835 75.4614 21.8618 75.4614 23.1285C75.4614 24.3952 74.453 25.422 73.2091 25.422C71.9652 25.422 70.9568 24.3952 70.9568 23.1285C70.9568 21.8618 71.9652 20.835 73.2091 20.835Z" fill="#FDB954"/>
<path d="M66.914 20.835C68.1579 20.835 69.1663 21.8618 69.1663 23.1285C69.1663 24.3952 68.1579 25.422 66.914 25.422C65.67 25.422 64.6616 24.3952 64.6616 23.1285C64.6616 21.8618 65.67 20.835 66.914 20.835Z" fill="#FDC571"/>
<path d="M60.2723 20.835C61.5163 20.835 62.5247 21.8618 62.5247 23.1285C62.5247 24.3952 61.5163 25.422 60.2723 25.422C59.0284 25.422 58.02 24.3952 58.02 23.1285C58.02 21.8618 59.0284 20.835 60.2723 20.835Z" fill="#FED08C"/>
</svg>
