<svg width="20" height="20" viewBox="0 0 20 20" fill="none" xmlns="http://www.w3.org/2000/svg">
<path d="M15.6002 6.38426C17.0225 8.58432 17.0217 11.417 15.6009 13.6163M11.7193 6.70427L13.6335 4.37902C13.912 4.04049 14.4216 4.01605 14.732 4.32569L15.675 5.26868C15.9854 5.57905 15.9602 6.0887 15.6217 6.36722L13.2964 8.28135M8.28073 13.2956L6.36661 15.6208C6.08808 15.9593 5.57844 15.9838 5.26806 15.6741L4.32507 14.7312C4.01469 14.4208 4.03988 13.9111 4.3784 13.6326L6.70365 11.7185M6.70439 8.28061L4.3784 6.36648C4.03987 6.08796 4.01543 5.57831 4.32507 5.26794L5.26806 4.32495C5.57844 4.01457 6.08808 4.03975 6.36661 4.37828L8.28073 6.70353M13.2957 11.7192L15.6209 13.6334C15.9595 13.9119 15.9839 14.4215 15.6743 14.7319L14.7313 15.6749C14.4209 15.9853 13.9113 15.9601 13.6327 15.6216L11.7186 13.2963M13.6164 15.6008C11.4171 17.0216 8.5837 17.0223 6.38438 15.6001M4.39914 6.38352C2.97836 8.58284 2.97762 11.4155 4.39989 13.6156M13.6157 4.39976C11.4156 2.9775 8.58296 2.97824 6.38364 4.39902M12.628 7.37203C14.0793 8.82337 14.0793 11.1765 12.628 12.6278C11.1766 14.0792 8.82353 14.0792 7.37218 12.6278C5.92084 11.1765 5.92084 8.82337 7.37218 7.37203C8.82353 5.92069 11.1766 5.92069 12.628 7.37203Z" stroke="#1A53C6" stroke-width="1.5" stroke-linecap="round" stroke-linejoin="round"/>
</svg>
